<?xml version="1.0" standalone="no"?>
<!DOCTYPE svg PUBLIC "-//W3C//DTD SVG 20010904//EN"
 "http://www.w3.org/TR/2001/REC-SVG-20010904/DTD/svg10.dtd">
<svg version="1.0" xmlns="http://www.w3.org/2000/svg"
 width="320.000000pt" height="320.000000pt" viewBox="0 0 320.000000 320.000000"
 preserveAspectRatio="xMidYMid meet">

<g transform="translate(0.000000,320.000000) scale(0.100000,-0.100000)"
fill="#000000" stroke="none">
<path d="M1425 3130 c-348 -37 -648 -177 -898 -419 -153 -148 -234 -257 -321
-429 -100 -199 -144 -377 -153 -617 -12 -327 51 -595 202 -850 340 -578 1002
-868 1669 -730 180 37 405 136 561 246 115 82 282 250 367 370 119 166 207
370 254 589 15 68 19 128 19 305 0 194 -3 232 -23 324 -70 313 -205 554 -434
779 -231 226 -493 362 -805 417 -109 19 -332 27 -438 15z m335 -142 c0 -41
-24 -54 -33 -18 -3 14 -14 20 -31 20 l-26 0 0 -106 c0 -97 2 -106 20 -111 11
-3 20 -12 20 -19 0 -11 -17 -14 -69 -14 -68 0 -104 16 -62 27 20 5 21 12 21
114 l0 109 -25 0 c-17 0 -29 -8 -37 -25 -18 -41 -40 -32 -32 13 4 20 8 39 9
42 2 3 58 5 124 5 l121 0 0 -37z m-436 -20 c8 -29 23 -84 32 -122 12 -49 22
-70 36 -74 10 -2 18 -8 18 -13 0 -13 -118 -59 -153 -59 -29 0 -67 43 -74 82
-5 33 -2 41 30 73 19 19 42 35 50 35 13 0 14 6 6 33 -5 17 -14 34 -19 35 -18
6 -10 27 18 44 15 9 30 17 34 17 4 1 13 -23 22 -51z m886 -66 c0 -4 42 -32 93
-62 50 -29 94 -55 96 -56 2 -2 -7 -17 -19 -34 -24 -33 -41 -33 -33 2 6 19 -17
48 -37 48 -4 0 -31 -39 -60 -87 -45 -74 -51 -89 -41 -106 18 -27 5 -34 -27
-14 -15 10 -42 25 -59 34 -40 20 -42 31 -6 35 22 2 37 19 80 91 l53 87 -26 12
c-20 9 -30 9 -45 0 -34 -22 -43 -2 -13 29 27 29 44 37 44 21z m-289 -31 c17
-18 29 -40 29 -56 0 -33 -24 -81 -45 -89 -46 -17 -126 5 -139 39 -10 27 -6 79
7 96 37 48 105 52 148 10z m-787 -57 c25 -25 19 -40 -24 -59 -43 -19 -46 -25
-28 -43 19 -19 56 -14 70 8 7 11 16 20 20 20 15 0 8 -38 -13 -64 -16 -20 -29
-26 -60 -26 -84 0 -120 91 -60 151 33 32 71 38 95 13z m-191 -99 c8 -8 25 -31
37 -50 13 -22 28 -34 36 -31 7 3 16 1 19 -3 5 -9 -67 -61 -84 -61 -5 0 -11 -4
-13 -8 -4 -11 -64 -52 -76 -52 -5 0 -7 10 -5 23 3 17 -6 34 -35 64 l-40 41 23
28 c13 16 26 26 30 22 4 -4 16 4 27 17 22 28 59 33 81 10z m764 -56 c344 -38
659 -247 821 -546 251 -461 136 -1036 -271 -1359 -95 -75 -268 -164 -377 -193
-587 -158 -1178 186 -1331 774 -30 115 -37 312 -15 438 70 409 365 738 764
852 142 41 260 51 409 34z m721 -32 c22 -21 27 -42 16 -71 -8 -22 -20 -20 -60
11 -26 20 -38 23 -46 15 -20 -20 3 -66 35 -70 33 -4 35 -19 4 -27 -36 -9 -76
11 -93 48 -14 30 -15 38 -3 63 16 34 75 66 104 58 11 -4 30 -16 43 -27z
m-1657 -77 c23 -27 50 -50 61 -50 25 0 23 -6 -14 -40 -32 -29 -55 -40 -43 -20
8 13 -52 87 -76 93 -18 5 -19 6 -2 36 10 17 21 31 25 31 4 0 26 -22 49 -50z
m1754 -24 c29 -12 55 -41 55 -61 0 -3 -19 -26 -41 -50 -35 -37 -39 -47 -29
-60 10 -13 9 -15 -8 -15 -21 0 -52 24 -52 40 0 5 -12 15 -27 22 -36 17 -44 62
-14 78 16 8 28 7 50 -5 38 -19 57 -19 65 1 9 24 -2 34 -33 28 -32 -7 -52 13
-30 27 19 12 24 11 64 -5z m-1845 -76 c41 -33 56 -37 63 -17 2 6 8 9 12 5 14
-13 -6 -59 -30 -70 -14 -6 -25 -19 -25 -28 0 -37 -55 -55 -80 -25 -10 12 -10
24 -1 56 13 43 9 59 -15 59 -12 0 -14 -7 -10 -27 7 -32 -6 -59 -23 -49 -16 11
-13 73 5 101 22 34 57 32 104 -5z m1998 -93 c36 -33 45 -56 31 -73 -20 -25
-37 -16 -35 19 1 27 -3 33 -22 35 -28 4 -72 -33 -72 -59 0 -10 12 -27 27 -38
30 -24 25 -36 -11 -27 -84 21 -88 138 -6 169 24 9 63 -3 88 -26z m-2141 -13
c4 -11 -1 -22 -12 -30 -21 -16 -18 -20 36 -52 27 -16 38 -19 47 -10 25 25 23
-4 -4 -47 -30 -46 -44 -56 -44 -30 0 18 -68 65 -94 65 -16 0 -18 5 -13 35 3
19 13 42 21 51 9 8 16 20 16 25 0 16 40 10 47 -7z m-177 -69 c36 -19 39 -35 5
-35 -21 0 -54 -34 -43 -46 2 -2 44 -22 93 -45 74 -34 93 -39 108 -29 30 18 32
4 6 -57 -24 -56 -58 -89 -46 -44 6 24 3 26 -113 76 -78 34 -80 34 -91 14 -8
-16 -7 -26 5 -44 9 -14 16 -27 16 -30 0 -11 -23 -4 -52 16 -26 19 -28 23 -15
38 16 18 87 173 87 190 0 14 5 14 40 -4z m2514 -14 l27 -28 -61 -26 -61 -27
22 -29 c30 -41 18 -67 -46 -98 -31 -15 -56 -35 -60 -47 -5 -17 -15 -3 -50 69
-24 50 -44 95 -44 101 -1 6 11 11 27 11 31 1 202 79 202 93 0 17 16 11 44 -19z
m-2097 -1674 c0 -8 -6 -14 -14 -14 -9 0 -10 4 -2 14 6 7 12 13 14 13 1 0 2 -6
2 -13z m53 -7 c12 -22 -2 -60 -21 -60 -6 0 -3 7 5 16 9 8 16 20 16 26 0 6 -3
8 -7 5 -9 -9 -34 13 -27 24 9 15 23 10 34 -11z m1554 -5 c14 -14 19 -25 12
-25 -7 0 -23 11 -36 25 -13 14 -18 25 -12 25 6 0 22 -11 36 -25z m-47 -16
c-14 -8 -16 -14 -6 -25 9 -11 15 -12 25 -3 11 9 14 9 14 0 0 -19 -31 -25 -47
-8 -19 19 -10 47 14 47 17 -1 17 -1 0 -11z m-1553 -31 c-3 -5 -12 -4 -20 3 -7
6 -11 15 -8 21 3 5 12 4 20 -3 7 -6 11 -15 8 -21z m108 -25 l-5 -27 26 17 c34
22 41 9 15 -31 -22 -36 -37 -37 -18 -2 11 21 11 21 -16 3 l-27 -17 7 29 c6 28
5 29 -9 11 -24 -32 -29 -10 -5 24 25 35 40 32 32 -7z m1411 20 c4 -3 0 -15
-10 -25 -18 -20 -5 -25 16 -5 11 10 13 9 9 -3 -6 -21 -47 -25 -54 -6 -12 32
18 61 39 39z m-33 -90 c0 -7 -5 -13 -11 -13 -5 0 -8 4 -4 9 3 6 -4 25 -15 43
-11 18 -20 38 -20 43 1 14 50 -67 50 -82z m-1315 17 c-9 -18 -19 -30 -22 -27
-3 3 3 19 13 36 23 39 30 32 9 -9z m1275 11 c7 -15 6 -24 -6 -36 -19 -18 -33
-16 -48 7 -7 12 -6 21 3 32 18 22 38 20 51 -3z m-1215 -21 c3 -5 -1 -22 -10
-37 l-16 -28 6 33 c7 37 -4 42 -23 11 -17 -27 -27 -18 -12 10 11 22 44 28 55
11z m1101 -1 c4 -8 9 -8 17 0 14 14 30 14 22 1 -3 -5 -1 -19 5 -30 6 -11 7
-20 1 -20 -5 0 -12 7 -15 15 -5 14 -8 14 -30 0 -14 -10 -23 -22 -19 -31 10
-26 -6 -14 -22 16 -19 37 -19 47 3 53 28 8 31 7 38 -4z m-1036 -49 c-18 -36
-23 -39 -41 -30 -31 17 -22 55 14 55 15 -1 27 3 27 7 0 4 5 8 10 8 6 0 1 -18
-10 -40z m53 24 c3 -3 -1 -13 -9 -22 -7 -10 -21 -26 -29 -37 -15 -19 -15 -19
-9 10 10 44 30 66 47 49z m5 -49 c-6 -31 11 -45 19 -16 3 12 10 21 15 21 6 0
7 -7 4 -16 -3 -9 -6 -20 -6 -25 0 -13 -37 -11 -45 2 -8 11 2 59 11 59 4 0 4
-11 2 -25z m62 -30 c-16 -42 -24 -22 -9 22 7 21 14 31 16 22 2 -8 -1 -28 -7
-44z m777 20 c6 -19 8 -37 3 -40 -4 -3 -11 6 -14 19 -3 13 -9 31 -12 40 -3 9
-2 16 3 16 5 0 14 -16 20 -35z m36 28 c-20 -8 -15 -23 7 -23 11 0 20 -7 20
-15 0 -8 -2 -15 -4 -15 -2 0 -11 -3 -20 -6 -9 -3 -16 -1 -16 4 0 6 8 13 18 15
13 4 12 5 -5 6 -12 0 -25 6 -28 11 -9 14 3 30 23 29 11 0 12 -3 5 -6z m-755
-32 c9 -5 11 -17 6 -34 -8 -34 -23 -35 -16 -2 6 31 -11 33 -26 3 -8 -17 -11
-19 -11 -6 -2 41 18 58 47 39z m692 -6 c10 -12 10 -18 0 -30 -26 -32 -68 -8
-54 30 4 8 14 15 24 15 10 0 23 -7 30 -15z m-280 -5 c12 -8 11 -10 -7 -10 -13
0 -23 -4 -23 -10 0 -5 9 -10 19 -10 20 0 35 -25 25 -41 -7 -12 -54 -12 -54 0
0 5 9 7 20 4 11 -3 20 0 20 6 0 6 -4 11 -8 11 -5 0 -17 6 -27 14 -16 12 -17
16 -6 30 16 19 21 19 41 6z m100 0 c0 -5 7 -7 15 -4 10 4 18 -3 25 -21 12 -33
12 -35 0 -35 -5 0 -10 9 -10 21 0 12 -5 19 -12 16 -7 -2 -12 -14 -10 -25 2
-12 -1 -22 -6 -22 -6 0 -12 18 -14 40 -2 22 0 40 4 40 5 0 8 -4 8 -10z m104
-6 c20 -19 20 -28 1 -44 -30 -25 -70 15 -45 45 16 19 25 19 44 -1z m-544 2 c0
-2 3 -12 7 -22 5 -14 2 -16 -20 -12 -15 3 -27 2 -27 -3 0 -4 10 -10 23 -12
l22 -4 -23 -2 c-24 -1 -38 20 -28 44 5 13 46 23 46 11z m177 -58 c-2 -13 -4
-3 -4 22 0 25 2 35 4 23 2 -13 2 -33 0 -45z m-119 22 c1 -25 -3 -30 -24 -30
-13 0 -24 5 -24 11 0 6 9 8 23 4 20 -6 21 -5 5 8 -23 19 -23 37 0 37 14 0 19
-8 20 -30z m58 18 c5 -8 2 -9 -9 -5 -22 8 -22 -2 0 -18 17 -13 10 -35 -12 -35
-8 0 -17 5 -21 12 -5 8 -2 9 9 5 22 -8 22 2 0 18 -17 13 -10 35 12 35 8 0 17
-5 21 -12z m299 2 c3 -5 -3 -10 -14 -10 -12 0 -21 -7 -21 -15 0 -9 9 -15 22
-15 16 0 19 -3 11 -11 -18 -18 -43 -3 -43 25 0 30 31 48 45 26z m-165 -30 c0
-16 -4 -30 -10 -30 -5 0 -10 11 -10 25 0 34 -18 32 -23 -2 -4 -26 -4 -26 -6 5
-1 28 2 32 24 32 21 0 25 -5 25 -30z"/>
<path d="M1257 2853 c-11 -10 -8 -62 3 -84 6 -10 20 -19 31 -19 19 0 20 4 14
37 -11 60 -29 85 -48 66z"/>
<path d="M1842 2858 c-15 -15 -16 -95 0 -104 19 -12 39 28 36 70 -3 42 -16 54
-36 34z"/>
<path d="M1064 2786 c-8 -22 -2 -27 16 -16 12 7 12 12 3 21 -10 10 -14 9 -19
-5z"/>
<path d="M864 2669 c-7 -12 44 -90 63 -97 26 -8 25 29 -2 68 -28 40 -48 50
-61 29z"/>
<path d="M1610 2361 c-36 -15 -103 -40 -150 -56 -92 -30 -100 -36 -100 -77 0
-19 11 -35 40 -58 l40 -32 -1 -567 0 -566 24 -15 c23 -13 29 -12 60 5 34 18
35 18 108 -6 103 -34 283 -34 379 0 185 64 286 197 297 392 13 214 -85 370
-266 423 -69 20 -141 20 -211 0 -30 -8 -66 -18 -79 -21 l-24 -6 6 296 c6 284
5 297 -13 307 -27 14 -37 13 -110 -19z m271 -733 c83 -46 125 -155 117 -302
-6 -105 -27 -165 -70 -201 -61 -51 -150 -20 -180 63 -9 26 -13 98 -13 240 0
169 2 204 15 212 26 17 91 11 131 -12z"/>
<path d="M1294 2105 c-8 -34 1 -55 26 -55 13 0 24 10 30 25 12 31 22 32 18 3
-2 -13 2 -24 7 -25 6 -2 10 14 10 35 0 33 -3 37 -25 37 -18 0 -26 -6 -28 -22
-2 -13 -8 -23 -13 -23 -6 0 -8 9 -4 19 3 11 1 22 -4 26 -6 3 -13 -6 -17 -20z"/>
<path d="M1295 2018 c-2 -7 -3 -29 -2 -48 2 -34 3 -35 50 -38 42 -3 47 -1 47
17 0 17 -6 21 -35 21 -35 0 -51 19 -17 21 9 1 24 2 32 3 8 0 16 9 18 19 3 14
-4 17 -43 17 -27 0 -47 -5 -50 -12z"/>
<path d="M1307 1902 c-34 -37 -15 -82 33 -82 34 0 50 17 50 52 0 45 -53 64
-83 30z m63 -32 c0 -6 -7 -13 -15 -16 -20 -8 -48 3 -40 16 8 13 55 13 55 0z"/>
<path d="M1260 1786 c0 -8 5 -18 10 -21 6 -3 10 3 10 14 0 12 -4 21 -10 21 -5
0 -10 -6 -10 -14z"/>
<path d="M1290 1785 c0 -11 12 -15 50 -15 38 0 50 4 50 15 0 11 -12 15 -50 15
-38 0 -50 -4 -50 -15z"/>
<path d="M1290 1735 c0 -8 -7 -15 -15 -15 -8 0 -15 -6 -15 -12 0 -16 46 -38
57 -27 4 4 22 9 38 11 24 2 31 8 33 31 4 29 -12 37 -22 12 -3 -8 -15 -15 -26
-15 -11 0 -20 7 -20 15 0 8 -7 15 -15 15 -8 0 -15 -7 -15 -15z"/>
<path d="M1294 1646 c-9 -23 0 -59 15 -64 10 -3 12 1 8 17 -3 11 -1 24 4 27 5
3 9 -4 9 -14 0 -24 25 -46 44 -39 10 4 15 20 14 46 l0 41 -44 0 c-29 0 -47 -5
-50 -14z m76 -37 c0 -5 -4 -9 -10 -9 -5 0 -10 7 -10 16 0 8 5 12 10 9 6 -3 10
-10 10 -16z"/>
<path d="M1260 1535 c0 -8 9 -15 21 -15 11 0 17 -5 14 -10 -11 -18 5 -48 29
-52 45 -9 66 8 66 52 l0 40 -65 0 c-51 0 -65 -3 -65 -15z m105 -30 c0 -5 -10
-11 -22 -13 -16 -2 -23 2 -23 13 0 11 7 15 23 13 12 -2 22 -7 22 -13z"/>
<path d="M1303 1432 c-7 -4 -11 -25 -10 -47 l2 -40 45 0 c35 0 45 4 48 18 3
14 -4 17 -32 17 -26 0 -36 4 -36 16 0 12 8 15 35 11 29 -4 35 -2 35 14 0 15
-7 19 -37 19 -21 0 -43 -4 -50 -8z"/>
<path d="M962 1299 c-130 -65 -130 -255 1 -318 103 -50 219 1 248 109 23 87
-13 168 -91 208 -55 28 -103 28 -158 1z"/>
<path d="M1290 1306 c0 -10 13 -16 38 -18 20 -2 37 -7 37 -13 0 -5 -17 -11
-37 -13 -26 -2 -38 -8 -38 -18 0 -12 11 -14 48 -12 l47 3 2 43 2 42 -50 0
c-36 0 -49 -4 -49 -14z"/>
<path d="M1300 1189 c-27 -49 20 -96 69 -69 24 12 29 58 9 78 -20 20 -66 15
-78 -9z m66 -20 c7 -12 -15 -31 -31 -26 -5 2 -11 11 -13 20 -4 19 32 24 44 6z"/>
<path d="M1260 1065 l0 -45 65 0 c51 0 65 3 65 15 0 9 -9 15 -25 15 -18 0 -25
5 -25 20 0 11 -7 20 -15 20 -8 0 -15 -9 -15 -20 0 -11 -7 -20 -15 -20 -10 0
-15 10 -15 30 0 17 -4 30 -10 30 -5 0 -10 -20 -10 -45z"/>
<path d="M2380 2605 c7 -8 16 -15 21 -15 5 0 9 7 9 15 0 9 -9 15 -21 15 -18 0
-19 -2 -9 -15z"/>
<path d="M2443 2435 c-3 -9 -3 -19 1 -22 7 -7 36 16 36 28 0 15 -30 10 -37 -6z"/>
<path d="M650 2376 c0 -18 17 -29 30 -21 8 5 7 11 -1 21 -15 18 -29 18 -29 0z"/>
<path d="M2692 2140 c-38 -17 -42 -22 -32 -40 10 -19 11 -19 55 2 29 14 45 29
45 40 0 22 -13 22 -68 -2z"/>
<path d="M805 580 c3 -5 8 -10 11 -10 2 0 4 5 4 10 0 6 -5 10 -11 10 -5 0 -7
-4 -4 -10z"/>
<path d="M2270 510 c0 -5 7 -7 15 -4 8 4 15 8 15 10 0 2 -7 4 -15 4 -8 0 -15
-4 -15 -10z"/>
<path d="M2190 445 c0 -8 7 -15 15 -15 8 0 15 7 15 15 0 8 -7 15 -15 15 -8 0
-15 -7 -15 -15z"/>
<path d="M2080 420 c0 -5 7 -10 15 -10 8 0 15 5 15 10 0 6 -7 10 -15 10 -8 0
-15 -4 -15 -10z"/>
<path d="M1034 399 c-3 -6 -1 -16 5 -22 9 -9 14 -8 21 3 9 15 4 30 -10 30 -5
0 -12 -5 -16 -11z"/>
<path d="M1912 336 c1 -10 8 -17 13 -17 15 1 12 24 -3 29 -9 3 -13 -2 -10 -12z"/>
<path d="M1842 314 c4 -21 22 -23 26 -1 2 10 -3 17 -13 17 -10 0 -15 -6 -13
-16z"/>
<path d="M1305 320 c3 -5 8 -10 11 -10 2 0 4 5 4 10 0 6 -5 10 -11 10 -5 0 -7
-4 -4 -10z"/>
</g>
</svg>
